<svg xmlns="http://www.w3.org/2000/svg" width="229" height="238" viewBox="0 0 229 238" fill="none">
  <g clip-path="url(#clip0_126_608)">
    <path d="M223.633 0.875244H4.95083C2.51573 0.875244 0.541687 2.85042 0.541687 5.28693V170.719C0.541687 173.156 2.51573 175.131 4.95083 175.131H223.633C226.068 175.131 228.042 173.156 228.042 170.719V5.28693C228.042 2.85042 226.068 0.875244 223.633 0.875244Z" fill="#92A4B9"/>
    <path d="M222.61 5.65161H5.97375V166.043H222.61V5.65161Z" fill="white"/>
    <path opacity="0.6" d="M222.751 163.096H222.61V8.59273V5.65161H5.97375V8.59273H219.67V163.096H6.11485V166.037H219.67H222.61H222.751V163.096Z" fill="#E0E0E0"/>
    <path d="M60.7941 14.2749H58.8364V152.702H60.7941V14.2749Z" fill="#E0E0E0"/>
    <path d="M206.984 24.6688H163.533V14.2749H161.405V24.6688H95.156V14.2749H93.022V24.6688H60.9646V14.2749H58.8364V24.6688H31.2999V14.2749H29.3422V24.6688H17.2906V26.6276H29.3422V152.708H31.2999V26.6276H58.8364V152.708H60.9646V26.6276H93.022V152.708H95.156V26.6276H161.405V152.708H163.533V26.6276H206.984V24.6688Z" fill="#C2DBF6"/>
    <path opacity="0.7" d="M139.106 39.051L136.637 56.8683L156.525 57.1095L154.844 34.3452L139.106 39.051Z" fill="#CCCCCC"/>
    <path d="M154.838 34.3452H135.42V54.9566H154.838V34.3452Z" fill="#DE4E96"/>
    <path d="M149.565 32.9041H141.234V35.8452H149.565V32.9041Z" fill="#CCCCCC"/>
    <path d="M56.6789 18.369C56.6789 19.1395 56.0557 19.7689 55.2797 19.7689H34.7155C33.9453 19.7689 33.3222 19.1454 33.3222 18.369C33.3222 17.5984 33.9453 16.969 34.7155 16.969H55.2856C56.0557 16.969 56.6847 17.5925 56.6847 18.369H56.6789Z" fill="#C2DBF6"/>
    <path d="M88.4247 18.369C88.4247 19.1395 87.8015 19.7689 87.0255 19.7689H66.4554C65.6853 19.7689 65.0621 19.1454 65.0621 18.369C65.0621 17.5984 65.6853 16.969 66.4554 16.969H87.0255C87.7957 16.969 88.4247 17.5925 88.4247 18.369Z" fill="#C2DBF6"/>
    <path d="M197.183 18.369C197.183 19.1395 196.56 19.7689 195.784 19.7689H175.214C174.444 19.7689 173.821 19.1454 173.821 18.369C173.821 17.5984 174.444 16.969 175.214 16.969H195.784C196.554 16.969 197.183 17.5925 197.183 18.369Z" fill="#C2DBF6"/>
    <path d="M198.553 137.52C198.553 138.337 197.895 138.996 197.078 138.996H176.366C175.549 138.996 174.891 138.337 174.891 137.52C174.891 136.702 175.549 136.043 176.366 136.043H197.078C197.895 136.043 198.553 136.702 198.553 137.52Z" fill="#B1C909"/>
    <path d="M198.553 143.402C198.553 144.22 197.895 144.878 197.078 144.878H176.366C175.549 144.878 174.891 144.22 174.891 143.402C174.891 142.584 175.549 141.926 176.366 141.926H197.078C197.895 141.926 198.553 142.584 198.553 143.402Z" fill="#B1C909"/>
    <path d="M69.1773 35.4334L67.6077 46.7626L80.3001 47.5155V34.6099L69.1773 35.4334Z" fill="#CCCCCC"/>
    <path d="M81.2525 32.9041H68.901V46.0156H81.2525V32.9041Z" fill="#959CE4"/>
    <path opacity="0.7" d="M125.279 40.9216H100.641V71.0211H125.279V40.9216Z" fill="#CCCCCC"/>
    <path d="M74.8093 48.0802L76.6964 59.3682L89.0361 56.2918L85.1796 43.9744L74.8093 48.0802Z" fill="#CCCCCC"/>
    <path d="M85.5834 42.06L73.7965 45.7537L77.7129 58.2659L89.4999 54.5722L85.5834 42.06Z" fill="#DE4E96"/>
    <path opacity="0.2" d="M115.938 38.5981C115.938 40.5627 114.386 42.1568 112.469 42.1568C110.553 42.1568 109.001 40.5627 109.001 38.5981C109.001 36.6334 110.553 35.0393 112.469 35.0393C114.386 35.0393 115.938 36.6334 115.938 38.5981Z" fill="#666666"/>
    <path d="M101.923 83.9032L99.4534 101.721L119.412 102.903V82.615L101.923 83.9032Z" fill="#CCCCCC"/>
    <path opacity="0.7" d="M135.397 90.7443L136.984 108.662L156.696 105.338L152.151 85.562L135.397 90.7443Z" fill="#CCCCCC"/>
    <path d="M153.014 82.6016L134.09 86.959L138.71 107.045L157.633 102.688L153.014 82.6016Z" fill="#FFBB2E"/>
    <path d="M122.504 76.668L112.957 91.9147L130.682 101.173L138.989 82.662L122.504 76.668Z" fill="#CCCCCC"/>
    <path d="M120.911 79.9326H101.493V100.544H120.911V79.9326Z" fill="#959CE4"/>
    <path d="M178.747 107.614L177.642 118.497L189.788 118.773L189.347 106.45L178.747 107.614Z" fill="#CCCCCC"/>
    <path d="M190.206 104.773L178.409 105.202L178.864 117.723L190.661 117.294L190.206 104.773Z" fill="#959CE4"/>
    <path opacity="0.7" d="M187.125 117.102L186.014 127.979L198.165 128.255L197.719 115.932L187.125 117.102Z" fill="#EADBEA"/>
    <path d="M198.575 114.251L186.778 114.68L187.233 127.201L199.03 126.772L198.575 114.251Z" fill="#45C678"/>
    <path opacity="0.7" d="M74.1626 81.3501L67.5489 93.9381L82.2637 99.4556L87.1196 82.0795L74.1626 81.3501Z" fill="#CCCCCC"/>
    <path d="M72.6885 76.8658L67.1583 92.1851L81.595 97.4027L87.1252 82.0835L72.6885 76.8658Z" fill="#B1C909"/>
    <path d="M77.3963 77.3569L76.6074 79.5422L82.8001 81.7804L83.589 79.5951L77.3963 77.3569Z" fill="#666666"/>
    <path opacity="0.7" d="M129.682 145.025L113.422 153.731L104.374 133.232L120.8 125.679L129.682 145.025Z" fill="#CCCCCC"/>
    <path d="M121.356 124.27L104.928 131.82L114.253 152.132L130.68 144.582L121.356 124.27Z" fill="#B1C909"/>
    <path d="M107.987 128.177L104.112 135.886L106.528 137.102L110.403 129.392L107.987 128.177Z" fill="#FFDA8E"/>
    <path d="M129.291 139.724L125.773 146.724L128.189 147.939L131.707 140.94L129.291 139.724Z" fill="#FFDA8E"/>
    <path opacity="0.7" d="M136.643 76.9738C136.643 78.9385 135.091 80.5326 133.175 80.5326C131.258 80.5326 129.706 78.9385 129.706 76.9738C129.706 75.0091 131.258 73.415 133.175 73.415C135.091 73.415 136.643 75.0091 136.643 76.9738Z" fill="#CCCCCC"/>
    <path opacity="0.7" d="M79.771 124.197L77.4841 116.897L67.1138 121.008L69.0009 132.291L75.8616 130.579L74.5623 135.038L87.0079 137.632L88.8891 124.867L79.771 124.197Z" fill="#CCCCCC"/>
    <path opacity="0.7" d="M69.6711 134.531L66.4672 145.514L78.9127 148.114L80.7939 135.343L69.6711 134.531Z" fill="#CCCCCC"/>
    <path d="M115.397 49.8979C115.144 49.692 114.774 49.7273 114.568 49.9802L111.205 54.0802L107.89 49.7214C107.696 49.4626 107.325 49.4155 107.067 49.6096C106.808 49.8038 106.761 50.1743 106.955 50.4332L110.441 55.0154L106.79 59.4624C106.584 59.7153 106.62 60.0859 106.873 60.2918C106.984 60.38 107.114 60.4271 107.243 60.4271C107.413 60.4271 107.584 60.3565 107.696 60.2095L111.164 55.9801L114.368 60.1977C114.486 60.3506 114.662 60.4271 114.838 60.4271C114.962 60.4271 115.085 60.3859 115.191 60.3095C115.45 60.1153 115.497 59.7448 115.303 59.4859L111.928 55.0507L115.467 50.739C115.673 50.4861 115.638 50.1155 115.385 49.9096L115.397 49.8979Z" fill="#010202"/>
    <path opacity="0.7" d="M44.0393 94.3323L39.0835 104.65L50.9411 109.238L54.88 96.9499L44.0393 94.3323Z" fill="#CCCCCC"/>
    <path d="M44.5478 91.848L40.5485 104.334L52.3107 108.106L56.31 95.6198L44.5478 91.848Z" fill="#66C2F0"/>
    <path opacity="0.7" d="M45.0035 127.126C45.9676 128.108 45.9735 129.667 45.0152 130.608C44.057 131.549 42.4991 131.508 41.535 130.526C40.5708 129.543 40.5649 127.985 41.5232 127.043C42.4814 126.102 44.0393 126.143 45.0035 127.126Z" fill="#CCCCCC"/>
    <path opacity="0.7" d="M186.214 64.1815L173.332 88.9189L193.337 99.3477L206.218 74.6102L186.214 64.1815Z" fill="#CCCCCC"/>
    <path opacity="0.7" d="M191.034 41.7568L192.322 56.2918L208.312 53.5978L204.626 37.5569L191.034 41.7568Z" fill="#CCCCCC"/>
    <path d="M205.327 35.1474L189.973 38.6829L193.721 54.9801L209.075 51.4446L205.327 35.1474Z" fill="#FFBB2E"/>
    <path opacity="0.7" d="M175.538 32.563L166.902 46.3627L182.939 54.739L190.458 37.9923L175.538 32.563Z" fill="#CCCCCC"/>
    <path opacity="0.2" d="M201.992 114.367C201.992 116.15 200.587 117.591 198.853 117.591C197.119 117.591 195.714 116.15 195.714 114.367C195.714 112.585 197.119 111.144 198.853 111.144C200.587 111.144 201.992 112.585 201.992 114.367Z" fill="#666666"/>
    <path d="M201.757 114.167C201.757 115.95 200.317 117.391 198.536 117.391C196.754 117.391 195.314 115.95 195.314 114.167C195.314 112.385 196.754 110.944 198.536 110.944C200.317 110.944 201.757 112.385 201.757 114.167Z" fill="#949494"/>
    <path d="M201.557 114.167C201.557 115.95 200.117 117.391 198.336 117.391C196.554 117.391 195.114 115.95 195.114 114.167C195.114 112.385 196.554 110.944 198.336 110.944C200.117 110.944 201.557 112.385 201.557 114.167Z" fill="#CCCCCC"/>
    <path d="M129.9 128.202C129.9 128.202 129.882 128.202 129.876 128.202C129.865 128.202 129.859 128.214 129.847 128.22C129.829 128.226 129.812 128.238 129.8 128.244C129.788 128.255 129.777 128.261 129.759 128.273C129.747 128.285 129.73 128.296 129.718 128.314C129.706 128.326 129.694 128.344 129.682 128.355C129.682 128.361 129.671 128.367 129.665 128.373C129.665 128.379 129.665 128.391 129.653 128.402C129.647 128.42 129.641 128.432 129.635 128.449C129.63 128.467 129.624 128.485 129.618 128.508C129.618 128.526 129.612 128.544 129.612 128.561C129.612 128.579 129.612 128.591 129.612 128.608C129.612 128.62 129.612 128.632 129.612 128.644C129.612 128.649 129.618 128.655 129.618 128.667C129.618 128.685 129.624 128.702 129.63 128.714C129.63 128.72 129.63 128.732 129.63 128.738L131.358 133.214C131.44 133.426 131.681 133.538 131.893 133.449C132.093 133.373 132.199 133.161 132.146 132.961C132.146 132.943 132.134 132.926 132.128 132.908L130.835 129.567L141.311 135.89C141.505 136.008 141.764 135.943 141.881 135.749C141.94 135.649 141.952 135.538 141.928 135.438C141.905 135.332 141.84 135.243 141.74 135.179L131.24 128.844L134.186 128.461C134.415 128.432 134.574 128.226 134.544 127.996C134.544 127.979 134.544 127.967 134.533 127.949C134.48 127.749 134.286 127.608 134.074 127.638L129.947 128.173C129.947 128.173 129.935 128.179 129.924 128.179C129.906 128.179 129.894 128.185 129.876 128.191L129.9 128.202Z" fill="#666666"/>
    <path d="M52.7518 43.2214C52.7518 43.2214 52.7694 43.2214 52.7753 43.2214C52.7871 43.2214 52.793 43.2096 52.8047 43.2038C52.8224 43.1979 52.84 43.192 52.8518 43.1802C52.8635 43.1685 52.8811 43.1626 52.8929 43.1508C52.9105 43.139 52.9223 43.1273 52.9341 43.1155C52.9458 43.1038 52.9576 43.0861 52.9693 43.0743C52.9693 43.0685 52.9811 43.0626 52.987 43.0567C52.987 43.0508 52.987 43.0391 52.9987 43.0273C53.0046 43.0155 53.0105 42.9979 53.0222 42.9802C53.0281 42.9626 53.034 42.9449 53.0399 42.9214C53.0399 42.9038 53.0458 42.8861 53.0516 42.8685C53.0516 42.8508 53.0516 42.8332 53.0516 42.8214C53.0516 42.8096 53.0516 42.7979 53.0516 42.7861C53.0516 42.7802 53.0516 42.7743 53.0457 42.7626C53.0457 42.7449 53.0399 42.7273 53.034 42.7155C53.034 42.7096 53.034 42.6979 53.034 42.692L51.4349 38.1686C51.3585 37.9509 51.1234 37.8391 50.9058 37.9156C50.706 37.9862 50.5943 38.1921 50.6354 38.398C50.6354 38.4156 50.6413 38.4333 50.6472 38.4509L51.8406 41.8273L41.5526 35.2039C41.3586 35.0804 41.0999 35.1333 40.9765 35.3274C40.9118 35.4215 40.9 35.5392 40.9177 35.6392C40.9412 35.7451 41 35.8392 41.0999 35.898L51.4114 42.5391L48.4544 42.8332C48.2251 42.8567 48.0605 43.0626 48.084 43.2861C48.084 43.3037 48.084 43.3155 48.0899 43.3332C48.1369 43.539 48.325 43.6802 48.5367 43.6567L52.6813 43.2449C52.6813 43.2449 52.693 43.2449 52.7048 43.239C52.7224 43.239 52.74 43.2332 52.7518 43.2273V43.2214Z" fill="#666666"/>
    <g opacity="0.7">
      <path d="M123.033 109.173C123.033 109.991 122.375 110.65 121.558 110.65H100.847C100.03 110.65 99.3711 109.991 99.3711 109.173C99.3711 108.356 100.03 107.697 100.847 107.697H121.558C122.375 107.697 123.033 108.356 123.033 109.173Z" fill="#CCCCCC"/>
      <path d="M123.033 115.055C123.033 115.873 122.375 116.532 121.558 116.532H100.847C100.03 116.532 99.3711 115.873 99.3711 115.055C99.3711 114.238 100.03 113.579 100.847 113.579H121.558C122.375 113.579 123.033 114.238 123.033 115.055Z" fill="#CCCCCC"/>
      <path d="M54.8682 52.3036C54.8682 52.986 54.3156 53.533 53.6395 53.533H36.3557C35.6737 53.533 35.127 52.9801 35.127 52.3036C35.127 51.6213 35.6796 51.0742 36.3557 51.0742H53.6395C54.3214 51.0742 54.8682 51.6272 54.8682 52.3036Z" fill="#CCCCCC"/>
      <path d="M54.8682 57.2094C54.8682 57.8917 54.3156 58.4388 53.6395 58.4388H36.3557C35.6737 58.4388 35.127 57.8858 35.127 57.2094C35.127 56.527 35.6796 55.98 36.3557 55.98H53.6395C54.3214 55.98 54.8682 56.5329 54.8682 57.2094Z" fill="#CCCCCC"/>
      <path d="M157.689 62.7799C157.689 63.5975 157.031 64.2564 156.214 64.2564H135.503C134.685 64.2564 134.027 63.5975 134.027 62.7799C134.027 61.9623 134.685 61.3035 135.503 61.3035H156.214C157.031 61.3035 157.689 61.9623 157.689 62.7799Z" fill="#CCCCCC"/>
      <path d="M157.689 68.662C157.689 69.4796 157.031 70.1384 156.214 70.1384H135.503C134.685 70.1384 134.027 69.4796 134.027 68.662C134.027 67.8444 134.685 67.1855 135.503 67.1855H156.214C157.031 67.1855 157.689 67.8444 157.689 68.662Z" fill="#CCCCCC"/>
      <path d="M86.4788 105.35C86.4788 106.032 85.9262 106.579 85.2501 106.579H67.9663C67.2843 106.579 66.7376 106.026 66.7376 105.35C66.7376 104.667 67.2902 104.12 67.9663 104.12H85.2501C85.9321 104.12 86.4788 104.673 86.4788 105.35Z" fill="#CCCCCC"/>
      <path d="M86.4788 110.256C86.4788 110.938 85.9262 111.485 85.2501 111.485H67.9663C67.2843 111.485 66.7376 110.932 66.7376 110.256C66.7376 109.573 67.2902 109.026 67.9663 109.026H85.2501C85.9321 109.026 86.4788 109.579 86.4788 110.256Z" fill="#CCCCCC"/>
      <path d="M86.4788 65.1093C86.4788 65.7916 85.9262 66.3387 85.2501 66.3387H67.9663C67.2843 66.3387 66.7376 65.7857 66.7376 65.1093C66.7376 64.4269 67.2902 63.8799 67.9663 63.8799H85.2501C85.9321 63.8799 86.4788 64.4328 86.4788 65.1093Z" fill="#CCCCCC"/>
      <path d="M86.4788 70.015C86.4788 70.6974 85.9262 71.2444 85.2501 71.2444H67.9663C67.2843 71.2444 66.7376 70.6915 66.7376 70.015C66.7376 69.3327 67.2902 68.7856 67.9663 68.7856H85.2501C85.9321 68.7856 86.4788 69.3386 86.4788 70.015Z" fill="#CCCCCC"/>
      <path d="M54.8682 115.544C54.8682 116.226 54.3156 116.773 53.6395 116.773H36.3557C35.6737 116.773 35.127 116.22 35.127 115.544C35.127 114.861 35.6796 114.314 36.3557 114.314H53.6395C54.3214 114.314 54.8682 114.867 54.8682 115.544Z" fill="#CCCCCC"/>
      <path d="M54.8682 120.449C54.8682 121.132 54.3156 121.679 53.6395 121.679H36.3557C35.6737 121.679 35.127 121.126 35.127 120.449C35.127 119.767 35.6796 119.22 36.3557 119.22H53.6395C54.3214 119.22 54.8682 119.773 54.8682 120.449Z" fill="#CCCCCC"/>
      <g opacity="0.6">
        <path d="M23.6573 35.1686C23.6573 35.6098 23.3046 35.9627 22.8637 35.9627H11.7174C11.2765 35.9627 10.9237 35.6098 10.9237 35.1686C10.9237 34.7274 11.2765 34.3745 11.7174 34.3745H22.8696C23.3105 34.3745 23.6632 34.7274 23.6632 35.1686H23.6573Z" fill="#CCCCCC"/>
        <path d="M23.6573 38.3332C23.6573 38.7743 23.3046 39.1273 22.8637 39.1273H11.7174C11.2765 39.1273 10.9237 38.7743 10.9237 38.3332C10.9237 37.892 11.2765 37.5391 11.7174 37.5391H22.8696C23.3105 37.5391 23.6632 37.892 23.6632 38.3332H23.6573Z" fill="#CCCCCC"/>
      </g>
    </g>
    <path opacity="0.7" d="M7.06134 48.3333L6.03254 50.192L5.97375 59.2507L5.97963 60.3683L13.1048 63.6094L17.7373 51.5626L7.06134 48.3333Z" fill="#CCCCCC"/>
    <path d="M7.71401 45.8692L3.00729 58.1057L14.5345 62.5447L19.2412 50.3081L7.71401 45.8692Z" fill="#45C678"/>
    <path d="M202.316 157.096H175.056C172.922 157.096 171.193 158.825 171.193 160.961H206.172C206.172 158.825 204.444 157.096 202.31 157.096H202.316Z" fill="#323232"/>
    <path d="M52.4167 159.396C52.4167 160.731 51.335 161.808 50.0064 161.808H37.6725C36.338 161.808 35.2622 160.725 35.2622 159.396C35.2622 158.061 36.3439 156.984 37.6725 156.984H50.0064C51.3409 156.984 52.4167 158.066 52.4167 159.396Z" fill="#010202"/>
    <path d="M73.9451 162.643H72.6459V163.102H73.9451V162.643Z" fill="#323232"/>
    <path d="M61.8347 158.325H34.4157C31.7819 158.325 29.6479 160.46 29.6479 163.096H72.8575C72.8575 160.46 64.4684 158.325 61.8347 158.325Z" fill="#E470AA"/>
    <mask id="mask0_126_608" style="mask-type:luminance" maskUnits="userSpaceOnUse" x="29" y="158" width="44" height="6">
      <path d="M61.8347 158.325H34.4157C31.7819 158.325 29.6479 160.46 29.6479 163.096H72.8575C72.8575 160.46 64.4684 158.325 61.8347 158.325Z" fill="white"/>
    </mask>
    <g mask="url(#mask0_126_608)">
      <path d="M34.786 155.96H22.5404V166.843H34.786V155.96Z" fill="#323232"/>
      <path d="M48.4073 155.466H47.8195V165.072H48.4073V155.466Z" fill="#E994BD"/>
      <path d="M49.5831 155.466H48.9952V165.072H49.5831V155.466Z" fill="#E994BD"/>
      <path opacity="0.2" d="M73.4924 157.231H64.6741V164.978H73.4924V157.231Z" fill="white"/>
    </g>
    <path d="M205.52 158.408H171.846C169.212 158.408 167.078 160.543 167.078 163.178H210.287C210.287 160.543 208.153 158.408 205.52 158.408Z" fill="#FFC856"/>
    <path d="M156.696 18.8631C156.696 19.9042 155.849 20.7513 154.809 20.7513H101.335C100.294 20.7513 99.4476 19.9042 99.4476 18.8631C99.4476 17.8219 100.294 16.9749 101.335 16.9749H154.809C155.849 16.9749 156.696 17.8219 156.696 18.8631Z" fill="#C2DBF6"/>
    <path opacity="0.7" d="M36.5379 131.396L40.4709 146.214L53.8688 142.155L48.9599 128.82L36.5379 131.396Z" fill="#CCCCCC"/>
    <path d="M49.3139 126.689L36.5486 131.394L41.5349 144.939L54.3002 140.234L49.3139 126.689Z" fill="#DE4E96"/>
    <path d="M44.7624 127.143C45.7266 128.126 45.7089 129.708 44.7272 130.673C43.7454 131.637 42.164 131.62 41.1999 130.637C40.2357 129.655 40.2534 128.073 41.2351 127.108C42.2169 126.143 43.7983 126.161 44.7624 127.143Z" fill="#BF8C23"/>
    <path d="M44.6507 127.249C45.6149 128.232 45.5972 129.814 44.6155 130.779C43.6337 131.743 42.0523 131.726 41.0882 130.743C40.124 129.761 40.1417 128.179 41.1234 127.214C42.1052 126.249 43.6866 126.267 44.6507 127.249Z" fill="#FFBB2E"/>
    <path d="M77.8879 114.986L66.101 118.679L70.0174 131.192L81.8043 127.498L77.8879 114.986Z" fill="#66C2F0"/>
    <path d="M77.8608 121.505L75.9465 134.476L88.1655 136.281L90.0798 123.31L77.8608 121.505Z" fill="#FFBB2E"/>
    <path d="M69.7641 131.978L67.8498 144.948L80.0688 146.754L81.983 133.783L69.7641 131.978Z" fill="#45C678"/>
    <path d="M123.749 72.8857L115.308 91.6873L133.021 99.6486L141.462 80.847L123.749 72.8857Z" fill="#E16070"/>
    <path d="M132.822 80.3092C134.786 80.3092 136.378 78.7159 136.378 76.7504C136.378 74.785 134.786 73.1917 132.822 73.1917C130.857 73.1917 129.265 74.785 129.265 76.7504C129.265 78.7159 130.857 80.3092 132.822 80.3092Z" fill="#949494"/>
    <path d="M136.161 76.7504C136.161 78.7151 134.568 80.3092 132.604 80.3092C130.641 80.3092 129.048 78.7151 129.048 76.7504C129.048 74.7857 130.641 73.1917 132.604 73.1917C134.568 73.1917 136.161 74.7857 136.161 76.7504Z" fill="#CCCCCC"/>
    <path opacity="0.7" d="M56.6554 66.98H39.6714V87.7325H56.6554V66.98Z" fill="#CCCCCC"/>
    <path opacity="0.2" d="M158.271 118.249L155.779 114.955L153.786 107.573C153.786 107.573 151.564 100.144 150.494 97.7969C150.329 97.4381 150.153 97.1028 149.965 96.7793C150.37 96.8851 150.764 96.9675 151.146 97.0204C152.334 97.1969 153.439 98.9498 155.414 99.7263C157.725 100.638 159.153 100.267 160.264 100.785C161.317 101.279 161.64 102.373 162.81 104.326C164.303 106.82 165.873 107.344 166.666 108.532C166.978 109.003 167.196 110.732 167.196 110.732C167.16 111.32 167.272 112.05 167.343 112.455C167.484 113.226 167.966 115.538 167.966 115.538L160.564 119.738L158.271 118.244V118.249ZM220.623 238L199.124 178.107L195.291 178.719L195.326 178.107L193.709 178.278C191.334 171.219 189.429 165.743 188.577 163.631C187.436 160.831 187.454 154.566 187.777 151.561C188.377 146.043 190.364 135.09 191.763 129.72C192.557 126.679 194.579 120.72 195.549 117.732C196.649 114.361 196.031 113.138 195.249 111.867C193.809 109.532 188.265 107.526 185.879 106.179C184.891 105.62 182.24 104.009 180.664 103.044C180.664 103.044 171.822 94.2558 169.1 91.7735C168.465 91.1911 167.066 90.1088 166.243 89.8559C164.979 89.4676 162.257 89.8265 160.958 89.5735C160.206 89.4265 158.73 88.8147 158.001 88.7265C156.919 88.5971 154.421 89.2265 153.333 89.2676C150.341 89.3853 141.717 88.7265 141.717 88.7265C141.717 88.7265 139.177 89.0735 140.029 91.7735C140.076 91.9264 140.312 92.1558 140.529 92.3382C140.476 92.3911 140.423 92.4441 140.382 92.4911C139.659 93.3264 139.059 95.4852 138.93 96.6557C138.748 98.2851 139.512 101.55 139.43 103.185C139.377 104.244 138.848 106.426 139.183 107.426C140.629 111.767 143.186 118.273 144.368 121.938C145.126 124.302 145.832 128.461 147.008 131.514C147.143 131.861 148.207 132.037 148.201 132.414C148.166 138.396 150.217 144.384 151.987 147.972C153.216 150.472 156.978 154.284 157.966 156.749C159.194 159.802 161.646 169.601 164.38 181.342L163.18 181.466L164.168 183.66L159.435 184.413L170.153 237.994H220.611L220.623 238Z" fill="#92A4B9"/>
    <g opacity="0.3">
      <path d="M125.679 84.956C125.726 83.4089 125.844 85.3148 126.173 85.7089C126.502 86.0971 127.613 85.8148 127.989 85.6795C128.954 85.3265 129.365 84.7618 130.411 84.6501C131.869 84.4971 133.251 84.103 134.674 83.7619C135.679 83.5207 135.526 82.9795 134.527 83.2207C132.769 83.6442 130.97 83.6619 129.236 84.103C128.854 84.203 128.419 84.3854 128.119 84.6501C127.396 85.2736 127.613 84.4677 127.454 83.8913C127.249 83.1383 125.985 83.2383 125.444 83.4501C124.503 83.8207 124.009 84.3501 123.974 85.4148C123.968 85.6912 125.661 85.4618 125.679 84.956Z" fill="#010202"/>
    </g>
    <path opacity="0.2" d="M185.361 36.3041C187.095 36.3041 188.5 34.8609 188.5 33.0806C188.5 31.3004 187.095 29.8572 185.361 29.8572C183.627 29.8572 182.222 31.3004 182.222 33.0806C182.222 34.8609 183.627 36.3041 185.361 36.3041Z" fill="#666666"/>
    <path d="M176.669 29.1373L169.03 46.1521L185.065 53.359L192.703 36.3442L176.669 29.1373Z" fill="#66C2F0"/>
    <path d="M184.638 36.6392C186.602 36.6392 188.195 35.0459 188.195 33.0805C188.195 31.115 186.602 29.5217 184.638 29.5217C182.674 29.5217 181.081 31.115 181.081 33.0805C181.081 35.0459 182.674 36.6392 184.638 36.6392Z" fill="#949494"/>
    <path d="M187.971 33.0805C187.971 35.0452 186.378 36.6392 184.415 36.6392C182.451 36.6392 180.858 35.0452 180.858 33.0805C180.858 31.1158 182.451 29.5217 184.415 29.5217C186.378 29.5217 187.971 31.1158 187.971 33.0805Z" fill="#CCCCCC"/>
    <path d="M55.509 65.7209H38.4603V86.797H55.509V65.7209Z" fill="#FFBB2E"/>
    <path d="M42.5025 63.8107L36.151 68.8894L37.7402 70.8791L44.0916 65.8004L42.5025 63.8107Z" fill="#949494"/>
    <path d="M56.2213 82.092L49.8699 87.1707L51.459 89.1604L57.8105 84.0817L56.2213 82.092Z" fill="#949494"/>
    <path d="M187.825 63.6056L174.944 88.343L194.949 98.7717L207.83 74.0343L187.825 63.6056Z" fill="#B1C909"/>
    <path d="M193.76 63.8331L183.197 65.9084L183.846 69.2158L194.409 67.1404L193.76 63.8331Z" fill="#DE4E96"/>
    <path d="M198.686 93.6773L188.124 95.7527L188.773 99.0601L199.336 96.9847L198.686 93.6773Z" fill="#DE4E96"/>
    <path d="M203.715 66.5388C199.888 66.5388 196.684 69.2623 195.943 72.8799L194.791 71.2681C194.603 71.0034 194.232 70.9446 193.968 71.1329C193.703 71.3211 193.644 71.6917 193.833 71.9564L195.89 74.8269C195.89 74.8269 195.896 74.8269 195.902 74.8328C195.902 74.8328 195.902 74.8445 195.908 74.8445C195.914 74.8504 195.925 74.8563 195.931 74.8622C195.967 74.9034 196.014 74.9387 196.067 74.9681C196.084 74.9798 196.096 74.9975 196.114 75.0034C196.114 75.0034 196.125 75.0034 196.131 75.0092C196.208 75.0445 196.284 75.0622 196.372 75.0622C196.431 75.0622 196.496 75.0504 196.554 75.0328C196.566 75.0328 196.572 75.0269 196.584 75.021C196.607 75.0151 196.625 75.0034 196.643 74.9916C196.666 74.9798 196.696 74.974 196.713 74.9563C196.713 74.9563 196.713 74.9504 196.719 74.9445C196.719 74.9445 196.731 74.9445 196.731 74.9387L199.541 72.7093C199.794 72.5093 199.841 72.1387 199.635 71.8858C199.435 71.6328 199.065 71.5858 198.812 71.7917L197.084 73.1622C197.701 70.0623 200.435 67.7153 203.715 67.7153C207.442 67.7153 210.476 70.7505 210.476 74.4798C210.476 78.2092 207.442 81.2444 203.715 81.2444C203.392 81.2444 203.127 81.5091 203.127 81.8327C203.127 82.1562 203.392 82.4209 203.715 82.4209C208.089 82.4209 211.651 78.8562 211.651 74.4798C211.651 70.1035 208.089 66.5388 203.715 66.5388Z" fill="#666666"/>
    <path d="M124.092 39.0803H99.4534V69.1798H124.092V39.0803Z" fill="#FFBB2E"/>
    <path d="M115.679 38.3744C115.679 40.3391 114.086 41.9332 112.122 41.9332C110.159 41.9332 108.566 40.3391 108.566 38.3744C108.566 36.4098 110.159 34.8157 112.122 34.8157C114.086 34.8157 115.679 36.4098 115.679 38.3744Z" fill="#949494"/>
    <path d="M115.456 38.3744C115.456 40.3391 113.863 41.9332 111.899 41.9332C109.935 41.9332 108.342 40.3391 108.342 38.3744C108.342 36.4098 109.935 34.8157 111.899 34.8157C113.863 34.8157 115.456 36.4098 115.456 38.3744Z" fill="#CCCCCC"/>
    <path d="M137.407 101.973L132.622 105.561C132.622 105.561 132.157 110.414 137.836 111.15C143.486 111.879 154.244 104.473 159.865 105.367C161.37 105.609 163.045 109.473 164.55 109.256C166.02 109.044 167.043 103.867 167.043 103.867L149.823 92.8853L137.401 101.967L137.407 101.973Z" fill="#F7B081"/>
    <path d="M137.143 111.75L134.286 114.408C134.286 114.408 134.732 119.597 140.2 118.661C145.326 117.791 158.871 109.485 158.871 109.485H161.993L166.243 111.879L163.915 104.697L152.487 102.038L137.137 111.744L137.143 111.75Z" fill="#FFCAA2"/>
    <path d="M138.671 118.132C138.671 118.132 137.889 119.22 137.948 119.808C138.066 120.979 139.336 122.92 141.329 123.72C145.291 125.308 158.342 122.191 158.342 122.191L168.242 115.144L164.256 109.826L158.477 108.362L138.671 118.138V118.132Z" fill="#F7B081"/>
    <path d="M131.817 92.8912L191.075 144.079L194.256 140.137L134.885 89.656L131.817 92.8912Z" fill="#5273BF"/>
    <path d="M131.817 92.8911L127.66 86.1736L134.885 89.6559L131.817 92.8911Z" fill="#DFA58A"/>
    <mask id="mask1_126_608" style="mask-type:luminance" maskUnits="userSpaceOnUse" x="127" y="86" width="8" height="7">
      <path d="M131.817 92.8911L127.66 86.1736L134.885 89.6559L131.817 92.8911Z" fill="white"/>
    </mask>
    <g mask="url(#mask1_126_608)">
      <path d="M126.784 85.7383L128.201 87.65L129.506 86.4324L126.767 85.6677" fill="#010202"/>
    </g>
    <path d="M193.909 143.008C193.092 144.143 191.863 144.661 191.169 144.161C190.476 143.661 190.582 142.337 191.399 141.196C192.216 140.061 193.445 139.543 194.138 140.043C194.832 140.543 194.726 141.867 193.909 143.008Z" fill="#5C85B5"/>
    <path d="M193.262 142.543C192.868 143.09 192.275 143.343 191.94 143.102C191.604 142.861 191.657 142.22 192.051 141.673C192.445 141.126 193.039 140.873 193.374 141.114C193.709 141.355 193.656 141.996 193.262 142.543Z" fill="#010202"/>
    <path d="M137.296 91.8265C137.296 91.8265 136.496 91.25 136.402 90.95C135.55 88.2501 138.089 87.903 138.089 87.903C138.089 87.903 146.714 88.5618 149.706 88.4442C150.793 88.403 153.292 87.7736 154.374 87.903C155.109 87.9912 156.578 88.603 157.331 88.75C158.63 89.003 161.352 88.6442 162.616 89.0324C163.439 89.2853 164.838 90.3677 165.473 90.95C168.195 93.4323 177.037 102.22 177.037 102.22L163.562 109.914C163.562 109.914 163.351 108.185 163.033 107.714C162.24 106.526 160.67 106.003 159.177 103.509C158.007 101.556 157.683 100.462 156.631 99.9675C155.52 99.4498 154.091 99.8204 151.781 98.9087C149.806 98.1263 148.701 96.3734 147.513 96.2028C143.427 95.6029 137.29 91.8265 137.29 91.8265H137.296Z" fill="#FFB781"/>
    <path d="M136.761 91.6678C136.761 91.6678 139.577 87.5561 145.673 93.3854C148.242 95.8442 149.559 101.368 149.559 101.368C149.559 101.368 151.787 111.326 153.398 114.285C153.992 115.379 155.908 117.22 157.084 117.626C159.447 118.438 167.043 116.867 167.043 116.867L165.308 117.626L154.691 120.82C154.691 120.82 150.652 116.185 150.605 116.032C150.558 115.885 147.613 104.709 147.613 104.562C147.613 104.415 136.755 91.6736 136.755 91.6736L136.761 91.6678Z" fill="#F6A570"/>
    <path d="M140.652 91.1794C138.307 90.397 137.225 91.1264 136.755 91.6676C136.032 92.5029 135.432 94.6616 135.303 95.8322C135.12 97.4616 135.885 100.726 135.802 102.361C135.749 103.42 135.22 105.603 135.555 106.603C137.002 110.944 139.559 117.449 140.741 121.114C141.499 123.479 146.596 143.555 148.365 147.149C149.594 149.649 153.357 153.461 154.344 155.925C158.054 165.131 170.952 231.089 170.952 231.089L208.318 233.059C208.318 233.059 188.436 171.384 184.944 162.807C183.803 160.007 183.821 153.743 184.144 150.737C184.744 145.22 186.731 134.267 188.13 128.896C188.924 125.855 190.946 119.896 191.916 116.908C193.015 113.538 192.398 112.314 191.616 111.044C190.176 108.714 184.632 106.703 182.245 105.356C180.799 104.538 175.796 101.467 175.796 101.467C175.796 101.467 165.485 106.061 163.703 109.25C163.409 109.773 163.598 111.055 163.703 111.644C163.845 112.414 164.327 114.726 164.327 114.726C164.327 114.726 159.206 118.767 157.084 118.596C154.826 118.414 152.833 115.002 152.381 114.073C151.54 112.355 150.646 108.603 150.141 106.761C149.459 104.273 147.919 99.3321 146.849 96.9851C145.332 93.644 142.622 91.8499 140.635 91.1911L140.652 91.1794Z" fill="#FFB781"/>
    <mask id="mask2_126_608" style="mask-type:luminance" maskUnits="userSpaceOnUse" x="135" y="90" width="74" height="144">
      <path d="M140.652 91.1794C138.307 90.397 137.225 91.1264 136.755 91.6676C136.032 92.5029 135.432 94.6616 135.303 95.8322C135.12 97.4616 135.885 100.726 135.802 102.361C135.749 103.42 135.22 105.603 135.555 106.603C137.002 110.944 139.559 117.449 140.741 121.114C141.499 123.479 146.596 143.555 148.365 147.149C149.594 149.649 153.357 153.461 154.344 155.925C158.054 165.131 170.952 231.089 170.952 231.089L208.318 233.059C208.318 233.059 188.436 171.384 184.944 162.807C183.803 160.007 183.821 153.743 184.144 150.737C184.744 145.22 186.731 134.267 188.13 128.896C188.924 125.855 190.946 119.896 191.916 116.908C193.015 113.538 192.398 112.314 191.616 111.044C190.176 108.714 184.632 106.703 182.245 105.356C180.799 104.538 175.796 101.467 175.796 101.467C175.796 101.467 165.485 106.061 163.703 109.25C163.409 109.773 163.598 111.055 163.703 111.644C163.845 112.414 164.327 114.726 164.327 114.726C164.327 114.726 159.206 118.767 157.084 118.596C154.826 118.414 152.833 115.002 152.381 114.073C151.54 112.355 150.646 108.603 150.141 106.761C149.459 104.273 147.919 99.3321 146.849 96.9851C145.332 93.644 142.622 91.8499 140.635 91.1911L140.652 91.1794Z" fill="white"/>
    </mask>
    <g mask="url(#mask2_126_608)">
      <path d="M159.559 180.648L191.699 177.284L191.528 180.501L161.987 186.013L159.559 180.648Z" fill="#F6A570"/>
    </g>
    <path d="M136.073 103.256C136.073 103.256 140.652 99.8556 141.799 98.6968C142.105 98.3851 142.428 97.5086 142.422 97.0733C142.375 95.3322 142.428 91.3499 138.736 91.6852C137.272 91.8205 136.426 92.6558 136.043 93.3499C135.55 94.2499 135.279 95.644 135.279 96.4439C135.279 98.1616 136.079 103.261 136.079 103.261L136.073 103.256Z" fill="#FFDDC4"/>
    <path d="M155.82 183.589L168.524 238H218.2L195.496 177.284L155.82 183.589Z" fill="#B1C909"/>
    <path d="M155.82 183.589L158.195 193.672L198.83 186.225L195.496 177.284L155.82 183.589Z" fill="white"/>
  </g>
  <defs>
    <clipPath id="clip0_126_608">
      <rect width="227.5" height="237.125" fill="white" transform="translate(0.541687 0.875244)"/>
    </clipPath>
  </defs>
</svg>